<?xml version="1.0" encoding="UTF-8"?>
<svg width="42px" height="40px" viewBox="0 0 42 40" version="1.1" xmlns="http://www.w3.org/2000/svg" xmlns:xlink="http://www.w3.org/1999/xlink">
    <title>Artboard</title>
    <g id="Artboard" stroke="none" stroke-width="1" fill="none" fill-rule="evenodd">
        <g id="noun_right_934660" transform="translate(0.000000, -1.000000)" fill="#FFFFFF" fill-rule="nonzero">
            <g id="Group" transform="translate(0.000000, 0.637800)">
                <path d="M41.9999953,20.357 C41.971995,19.642 41.677695,18.8156 41.187495,18.2944 L25.187495,1.2936 C24.103295,0.3193 22.024295,-0.0829 20.812495,1.0436 C19.618895,2.1531 19.654395,4.3049 20.843495,5.4188 L32.093495,17.3569 L2.9999953,17.3569 C1.3431953,17.3569 -4.7e-06,18.7001 -4.7e-06,20.357 C-4.7e-06,22.0139 1.3431953,23.3571 2.9999953,23.3571 L32.093495,23.3571 L20.843495,35.2952 C19.819795,36.3207 19.630595,38.5482 20.812495,39.6704 C21.994095,40.7925 24.147795,40.434 25.187495,39.4203 L41.187495,22.4196 C41.734995,21.8378 42.001795,21.1552 41.9999953,20.357 Z" id="Path"></path>
            </g>
        </g>
    </g>
</svg>